<svg xmlns="http://www.w3.org/2000/svg" xmlns:xlink="http://www.w3.org/1999/xlink" width="61.335" height="61.335" viewBox="0 0 61.335 61.335">
  <defs>
    <clipPath id="clip-path">
      <path id="Path_136" data-name="Path 136" d="M0-682.665H61.335v61.335H0Z" transform="translate(0 682.665)"/>
    </clipPath>
  </defs>
  <g id="Group_72" data-name="Group 72" transform="translate(0 -0.002)">
    <g id="Group_71" data-name="Group 71" transform="translate(0 0.002)" clip-path="url(#clip-path)">
      <path id="Path_120" data-name="Path 120" d="M-412.6-392.223v12.793a1.2,1.2,0,0,1-1.2,1.2h-38.334a1.2,1.2,0,0,1-1.2-1.2v-50.314a1.2,1.2,0,0,1,1.2-1.2H-413.8a1.2,1.2,0,0,1,1.2,1.2v30.482" transform="translate(454.53 435.254)" fill="none" stroke="#e9a415" stroke-linecap="round" stroke-linejoin="round" stroke-miterlimit="2.613" stroke-width="3"/>
      <path id="Path_121" data-name="Path 121" d="M-157.758,0h-15.573" transform="translate(180.519 50.542)" fill="none" stroke="#e9a415" stroke-linecap="round" stroke-linejoin="round" stroke-miterlimit="2.613" stroke-width="3"/>
      <path id="Path_122" data-name="Path 122" d="M-78.88,0h-7.787" transform="translate(93.854 45.573)" fill="none" stroke="#e9a415" stroke-linecap="round" stroke-linejoin="round" stroke-miterlimit="2.613" stroke-width="3"/>
      <path id="Path_123" data-name="Path 123" d="M-157.758,0h-15.573" transform="translate(180.519 40.605)" fill="none" stroke="#e9a415" stroke-linecap="round" stroke-linejoin="round" stroke-miterlimit="2.613" stroke-width="3"/>
      <path id="Path_124" data-name="Path 124" d="M-78.88,0h-7.787" transform="translate(93.854 35.636)" fill="none" stroke="#e9a415" stroke-linecap="round" stroke-linejoin="round" stroke-miterlimit="2.613" stroke-width="3"/>
      <path id="Path_125" data-name="Path 125" d="M-157.758,0h-15.573" transform="translate(180.519 30.668)" fill="none" stroke="#e9a415" stroke-linecap="round" stroke-linejoin="round" stroke-miterlimit="2.613" stroke-width="3"/>
      <path id="Path_126" data-name="Path 126" d="M-78.88,0h-7.787" transform="translate(93.854 25.699)" fill="none" stroke="#e9a415" stroke-linecap="round" stroke-linejoin="round" stroke-miterlimit="2.613" stroke-width="3"/>
      <path id="Path_127" data-name="Path 127" d="M-103.144,0h-10.182" transform="translate(125.905 20.73)" fill="none" stroke="#e9a415" stroke-linecap="round" stroke-linejoin="round" stroke-miterlimit="2.613" stroke-width="3"/>
      <path id="Path_128" data-name="Path 128" d="M-78.88,0h-7.787" transform="translate(93.854 15.762)" fill="none" stroke="#e9a415" stroke-linecap="round" stroke-linejoin="round" stroke-miterlimit="2.613" stroke-width="3"/>
      <path id="Path_129" data-name="Path 129" d="M-157.758,0h-15.573" transform="translate(180.519 10.793)" fill="none" stroke="#e9a415" stroke-linecap="round" stroke-linejoin="round" stroke-miterlimit="2.613" stroke-width="3"/>
      <path id="Path_130" data-name="Path 130" d="M-75.5,0l-4.969,4.969-2.484-2.484" transform="translate(112.635 10.793)" fill="none" stroke="#e9a415" stroke-linecap="round" stroke-linejoin="round" stroke-miterlimit="2.613" stroke-width="3"/>
      <path id="Path_131" data-name="Path 131" d="M0,0,4.7,4.7" transform="translate(51.66 25.061)" fill="none" stroke="#e9a415" stroke-linecap="round" stroke-linejoin="round" stroke-miterlimit="22.926" stroke-width="3"/>
      <path id="Path_132" data-name="Path 132" d="M-258.288-3.776a1.281,1.281,0,0,1,1.807,0l1.581,1.581a1.282,1.282,0,0,1,0,1.807l-23.238,23.238-5.647,2.259,2.259-5.647Z" transform="translate(314.664 25.433)" fill="none" stroke="#e9a415" stroke-linecap="round" stroke-linejoin="round" stroke-miterlimit="22.926" stroke-width="3"/>
      <path id="Path_133" data-name="Path 133" d="M-75.5,0l-4.969,4.969-2.484-2.484" transform="translate(112.635 20.73)" fill="none" stroke="#e9a415" stroke-linecap="round" stroke-linejoin="round" stroke-miterlimit="2.613" stroke-width="3"/>
      <path id="Path_134" data-name="Path 134" d="M-75.5,0l-4.969,4.969-2.484-2.484" transform="translate(112.635 30.668)" fill="none" stroke="#e9a415" stroke-linecap="round" stroke-linejoin="round" stroke-miterlimit="2.613" stroke-width="3"/>
      <path id="Path_135" data-name="Path 135" d="M0,0H0" transform="translate(7.188 20.73)" fill="none" stroke="#e9a415" stroke-linecap="round" stroke-linejoin="round" stroke-miterlimit="2.613" stroke-width="3"/>
    </g>
  </g>
</svg>
