<svg xmlns="http://www.w3.org/2000/svg" width="77.137" height="56" viewBox="0 0 77.137 56">
  <g id="Group_73" data-name="Group 73" transform="translate(-0.129 -6.344)">
    <path id="Path_137" data-name="Path 137" d="M74.306,20.714,41.848,6.979a8.126,8.126,0,0,0-6.3,0L3.088,20.714a4.847,4.847,0,0,0,0,8.929l11.375,4.81V49.921a8,8,0,0,0,3.878,6.908,40.337,40.337,0,0,0,40.718,0,8,8,0,0,0,3.878-6.908V34.453L67.785,32.4v7.662A4.02,4.02,0,0,0,67,46.992a4.025,4.025,0,0,0-1.64,3.232v4.04a1.616,1.616,0,0,0,1.616,1.616h4.847a1.616,1.616,0,0,0,1.616-1.616v-4.04a4.025,4.025,0,0,0-1.64-3.232,4.02,4.02,0,0,0-.784-6.929V31.034l3.29-1.391a4.847,4.847,0,0,0,0-8.929Zm-4.1,23.046a.808.808,0,1,1-.808-.808A.808.808,0,0,1,70.208,43.76Zm0,8.887H68.593V50.223a.808.808,0,0,1,1.616,0Zm-10.5-2.726a4.762,4.762,0,0,1-2.286,4.122,37.11,37.11,0,0,1-37.438,0,4.762,4.762,0,0,1-2.286-4.122V35.82l17.858,7.556a8.118,8.118,0,0,0,6.3,0L59.706,35.82ZM73.047,26.666,40.589,40.4a4.878,4.878,0,0,1-3.778,0L4.353,26.666a1.616,1.616,0,0,1,0-2.976L36.811,9.956a4.868,4.868,0,0,1,3.778,0L73.047,23.69a1.616,1.616,0,0,1,0,2.976Z" transform="translate(0 0)" fill="#e9a415"/>
  </g>
</svg>
