<svg width="32" height="31" viewBox="0 0 32 31" fill="none" xmlns="http://www.w3.org/2000/svg">
<path d="M13.2035 10.0972L12.7729 12.6097C12.739 12.7995 12.817 12.9928 12.9763 13.1081C13.1323 13.2234 13.3391 13.2369 13.512 13.1454L15.7668 11.9587L18.0215 13.1454C18.0961 13.1861 18.1775 13.203 18.2588 13.203C18.3639 13.203 18.469 13.1691 18.5572 13.1047C18.7132 12.9894 18.7911 12.7995 18.7606 12.6063L18.33 10.0939L20.1542 8.3138C20.2932 8.17818 20.344 7.97814 20.283 7.79166C20.222 7.60857 20.0626 7.47294 19.8727 7.44582L17.3502 7.07964L16.2211 4.79439C16.1363 4.62147 15.96 4.50958 15.7634 4.50958C15.5667 4.50958 15.3938 4.61808 15.3056 4.79439L14.1766 7.07964L11.654 7.44582C11.4641 7.47294 11.3048 7.60857 11.2437 7.79166C11.1827 7.97475 11.2336 8.17818 11.3726 8.3138L13.2035 10.0972ZM14.5936 8.05273C14.7598 8.029 14.9022 7.92389 14.9768 7.7747L15.7668 6.17435L16.5568 7.7747C16.6314 7.92389 16.7738 8.029 16.9399 8.05273L18.7064 8.31041L17.4281 9.55815C17.3095 9.67342 17.2518 9.84295 17.2823 10.0091L17.5841 11.7688L16.0041 10.9381C15.9295 10.9008 15.8481 10.8805 15.7668 10.8805C15.6854 10.8805 15.604 10.9008 15.5294 10.9381L13.9494 11.7688L14.2512 10.0091C14.2783 9.84295 14.224 9.67682 14.1054 9.55815L12.8271 8.31041L14.5936 8.05273Z" fill="#0B436A"/>
<path d="M0.400956 3.7771C0.167082 4.14586 0.030702 4.56798 0.00460787 5.00387C-0.0214863 5.43976 0.0635602 5.87514 0.251771 6.26917C1.30285 8.47982 3.67625 12.5282 7.79918 15.0067C8.7655 16.7698 10.298 18.1769 12.1527 18.9838L11.0507 22.9033H9.64027C9.35885 22.9033 9.13168 23.1305 9.13168 23.4119V26.4431H7.53811C7.25669 26.4431 7.02952 26.6702 7.02952 26.9517V30.4914C7.02952 30.7728 7.25669 31 7.53811 31H23.9959C24.2774 31 24.5045 30.7728 24.5045 30.4914V26.955C24.5045 26.6736 24.2774 26.4465 23.9959 26.4465H22.4024V23.4153C22.4024 23.1339 22.1752 22.9067 21.8938 22.9067H20.4833L19.3814 18.9872C21.236 18.1802 22.7686 16.7698 23.7349 15.0101C27.8578 12.5349 30.2312 8.48321 31.2823 6.27256C31.6654 5.4656 31.6078 4.53319 31.1331 3.78049C30.9002 3.40841 30.5761 3.10196 30.1916 2.89014C29.8072 2.67832 29.375 2.56814 28.936 2.57005H24.847V0.508586C24.847 0.227168 24.6198 0 24.3384 0H7.19566C6.91424 0 6.68708 0.227168 6.68708 0.508586V2.56666H2.59805C1.69955 2.56666 0.879027 3.01761 0.400956 3.7771ZM3.27955 5.58088H6.68708V10.3209C5.12741 8.76463 4.01531 7.00831 3.27955 5.58088ZM23.4874 29.9862H8.0467V29.2335H12.6307C12.9122 29.2335 13.1393 29.0063 13.1393 28.7249C13.1393 28.4435 12.9122 28.2163 12.6307 28.2163H8.0467V27.4636H23.484V29.9862H23.4874ZM21.3852 26.4465H10.1489V23.9239H21.3818V26.4465H21.3852ZM19.4255 22.9067H12.1086L13.1088 19.3398C13.9497 19.5975 14.8414 19.7365 15.767 19.7365C16.6927 19.7365 17.5844 19.5975 18.4252 19.3398L19.4255 22.9067ZM24.847 5.58088H28.2545C27.5221 7.00153 26.41 8.75785 24.847 10.3209V5.58088ZM28.936 3.58383C29.4819 3.58383 29.9803 3.85847 30.2719 4.31959C30.5601 4.77732 30.594 5.34354 30.3634 5.83178C29.4717 7.70338 27.5933 10.9583 24.4537 13.3012C24.6029 12.8096 24.7114 12.3044 24.7758 11.7822C27.1254 9.73433 28.6275 7.19479 29.4717 5.41813C29.5667 5.23165 29.5565 5.02144 29.448 4.84852C29.3395 4.66882 29.1462 4.56371 28.9394 4.56371H24.847V3.58044H28.936V3.58383ZM7.70425 1.01717H23.8298V10.6566C23.8298 15.1016 20.2121 18.7193 15.767 18.7193C11.322 18.7193 7.70425 15.1016 7.70425 10.6566V1.01717ZM6.68708 4.56371H2.59805C2.38783 4.56371 2.19796 4.66882 2.09285 4.84174C1.97757 5.02144 1.9674 5.23165 2.05895 5.40796C2.90998 7.19479 4.412 9.73094 6.76167 11.7822C6.82609 12.3044 6.93459 12.813 7.08377 13.3012C3.94071 10.9583 2.06234 7.70338 1.17062 5.83178C0.936666 5.34354 0.970572 4.77732 1.26216 4.31959C1.40373 4.09332 1.60075 3.90696 1.83454 3.7782C2.06833 3.64944 2.33114 3.58253 2.59805 3.58383H6.68708V4.56371Z" fill="#0B436A"/>
<path d="M15.7669 28.2162H14.4107C14.1293 28.2162 13.9021 28.4434 13.9021 28.7248C13.9021 29.0063 14.1293 29.2334 14.4107 29.2334H15.7669C16.0483 29.2334 16.2755 29.0063 16.2755 28.7248C16.2755 28.4434 16.0483 28.2162 15.7669 28.2162Z" fill="#0B436A"/>
</svg>
