<svg width="132" height="131" viewBox="0 0 132 131" fill="none" xmlns="http://www.w3.org/2000/svg">
<path d="M66 0L78.1966 20.3265L99 8.77534L99.3217 32.4307L123.158 32.75L111.518 53.3958L132 65.5L111.518 77.6042L123.158 98.25L99.3217 98.5693L99 122.225L78.1966 110.673L66 131L53.8034 110.673L33 122.225L32.6783 98.5693L8.84232 98.25L20.4817 77.6042L0 65.5L20.4817 53.3958L8.84232 32.75L32.6783 32.4307L33 8.77534L53.8034 20.3265L66 0Z" fill="#29CA43"/>
<path d="M59.89 82.3738C59.2387 82.3741 58.5938 82.2459 57.9921 81.9965C57.3904 81.7471 56.8438 81.3815 56.3836 80.9206L45.5508 70.0936L49.6844 65.9619L59.89 76.1675L86.4589 49.5986L90.5925 53.7304L63.3964 80.9206C62.9363 81.3815 62.3897 81.7471 61.788 81.9965C61.1863 82.2459 60.5414 82.3741 59.89 82.3738Z" fill="white"/>
</svg>
