<svg width="24" height="31" viewBox="0 0 24 31" fill="none" xmlns="http://www.w3.org/2000/svg">
<path d="M23.3471 7.53155L16.0817 0.266104C15.911 0.0962972 15.6802 0.000676616 15.4395 0L2.72461 0C1.22226 0 0 1.22226 0 2.72461V28.2754C0 29.7777 1.22226 31 2.72461 31H20.8887C22.391 31 23.6133 29.7777 23.6133 28.2754V8.17383C23.6133 7.92462 23.5077 7.69206 23.3471 7.53155ZM16.3477 3.10079L20.5125 7.26562H17.2559C16.7551 7.26562 16.3477 6.8582 16.3477 6.35742V3.10079ZM20.8887 29.1836H2.72461C2.22383 29.1836 1.81641 28.7762 1.81641 28.2754V2.72461C1.81641 2.22383 2.22383 1.81641 2.72461 1.81641H14.5312V6.35742C14.5312 7.85977 15.7535 9.08203 17.2559 9.08203H21.7969V28.2754C21.7969 28.7762 21.3895 29.1836 20.8887 29.1836Z" fill="#FB6816"/>
<path d="M17.2559 14.6523H8.17383C7.67226 14.6523 7.26562 15.059 7.26562 15.5605C7.26562 16.0621 7.67226 16.4688 8.17383 16.4688H17.2559C17.7574 16.4688 18.1641 16.0621 18.1641 15.5605C18.1641 15.059 17.7574 14.6523 17.2559 14.6523ZM17.2559 18.2852H8.17383C7.67226 18.2852 7.26562 18.6918 7.26562 19.1934C7.26562 19.6949 7.67226 20.1016 8.17383 20.1016H17.2559C17.7574 20.1016 18.1641 19.6949 18.1641 19.1934C18.1641 18.6918 17.7574 18.2852 17.2559 18.2852ZM17.2559 21.918H8.17383C7.67226 21.918 7.26562 22.3246 7.26562 22.8262C7.26562 23.3277 7.67226 23.7344 8.17383 23.7344H17.2559C17.7574 23.7344 18.1641 23.3277 18.1641 22.8262C18.1641 22.3246 17.7574 21.918 17.2559 21.918Z" fill="#FB6816"/>
<path d="M4.54102 16.4688C5.0426 16.4688 5.44922 16.0621 5.44922 15.5605C5.44922 15.059 5.0426 14.6523 4.54102 14.6523C4.03943 14.6523 3.63281 15.059 3.63281 15.5605C3.63281 16.0621 4.03943 16.4688 4.54102 16.4688Z" fill="#FB6816"/>
<path d="M4.54102 20.1016C5.0426 20.1016 5.44922 19.6949 5.44922 19.1934C5.44922 18.6918 5.0426 18.2852 4.54102 18.2852C4.03943 18.2852 3.63281 18.6918 3.63281 19.1934C3.63281 19.6949 4.03943 20.1016 4.54102 20.1016Z" fill="#FB6816"/>
<path d="M4.54102 23.7344C5.0426 23.7344 5.44922 23.3278 5.44922 22.8262C5.44922 22.3246 5.0426 21.918 4.54102 21.918C4.03943 21.918 3.63281 22.3246 3.63281 22.8262C3.63281 23.3278 4.03943 23.7344 4.54102 23.7344Z" fill="#FB6816"/>
</svg>
