<svg width="44" height="34" viewBox="0 0 44 34" fill="none" xmlns="http://www.w3.org/2000/svg">
<path d="M10.0834 26.1667C11.6022 26.1667 12.8334 24.9355 12.8334 23.4167C12.8334 21.898 11.6022 20.6667 10.0834 20.6667C8.56459 20.6667 7.33337 21.898 7.33337 23.4167C7.33337 24.9355 8.56459 26.1667 10.0834 26.1667Z" fill="#FBB016"/>
<path d="M34.8333 0.5H9.16667C6.73641 0.502911 4.40652 1.46962 2.68807 3.18807C0.969617 4.90652 0.00291107 7.23641 0 9.66667L0 24.3333C0.00291107 26.7636 0.969617 29.0935 2.68807 30.8119C4.40652 32.5304 6.73641 33.4971 9.16667 33.5H34.8333C37.2636 33.4971 39.5935 32.5304 41.3119 30.8119C43.0304 29.0935 43.9971 26.7636 44 24.3333V9.66667C43.9971 7.23641 43.0304 4.90652 41.3119 3.18807C39.5935 1.46962 37.2636 0.502911 34.8333 0.5ZM9.16667 4.16667H34.8333C36.292 4.16667 37.691 4.74613 38.7224 5.77758C39.7539 6.80903 40.3333 8.20798 40.3333 9.66667H3.66667C3.66667 8.20798 4.24613 6.80903 5.27758 5.77758C6.30903 4.74613 7.70798 4.16667 9.16667 4.16667ZM34.8333 29.8333H9.16667C7.70798 29.8333 6.30903 29.2539 5.27758 28.2224C4.24613 27.191 3.66667 25.792 3.66667 24.3333V13.3333H40.3333V24.3333C40.3333 25.792 39.7539 27.191 38.7224 28.2224C37.691 29.2539 36.292 29.8333 34.8333 29.8333Z" fill="#FBB016"/>
</svg>
