<svg width="15" height="17" viewBox="0 0 15 17" fill="none" xmlns="http://www.w3.org/2000/svg">
<path d="M14.1248 2.83333H11.929C11.7646 2.03392 11.3296 1.31562 10.6974 0.799509C10.0652 0.283397 9.27432 0.00103029 8.45817 0L7.0415 0C6.22536 0.00103029 5.43452 0.283397 4.80229 0.799509C4.17005 1.31562 3.73507 2.03392 3.57067 2.83333H1.37484C1.18698 2.83333 1.00681 2.90796 0.87397 3.0408C0.741132 3.17364 0.666504 3.3538 0.666504 3.54167C0.666504 3.72953 0.741132 3.9097 0.87397 4.04253C1.00681 4.17537 1.18698 4.25 1.37484 4.25H2.08317V13.4583C2.0843 14.3973 2.4578 15.2975 3.12174 15.9614C3.78569 16.6254 4.68587 16.9989 5.62484 17H9.87484C10.8138 16.9989 11.714 16.6254 12.3779 15.9614C13.0419 15.2975 13.4154 14.3973 13.4165 13.4583V4.25H14.1248C14.3127 4.25 14.4929 4.17537 14.6257 4.04253C14.7585 3.9097 14.8332 3.72953 14.8332 3.54167C14.8332 3.3538 14.7585 3.17364 14.6257 3.0408C14.4929 2.90796 14.3127 2.83333 14.1248 2.83333ZM7.0415 1.41667H8.45817C8.89753 1.4172 9.32597 1.55364 9.68473 1.80727C10.0435 2.0609 10.315 2.41931 10.462 2.83333H5.03763C5.18467 2.41931 5.45618 2.0609 5.81494 1.80727C6.17371 1.55364 6.60214 1.4172 7.0415 1.41667ZM11.9998 13.4583C11.9998 14.0219 11.776 14.5624 11.3774 14.9609C10.9789 15.3595 10.4384 15.5833 9.87484 15.5833H5.62484C5.06125 15.5833 4.52075 15.3595 4.12224 14.9609C3.72372 14.5624 3.49984 14.0219 3.49984 13.4583V4.25H11.9998V13.4583Z" fill="#FBB016"/>
<path d="M6.33333 12.7502C6.52119 12.7502 6.70136 12.6755 6.8342 12.5427C6.96704 12.4099 7.04167 12.2297 7.04167 12.0418V7.79183C7.04167 7.60397 6.96704 7.4238 6.8342 7.29096C6.70136 7.15812 6.52119 7.0835 6.33333 7.0835C6.14547 7.0835 5.9653 7.15812 5.83247 7.29096C5.69963 7.4238 5.625 7.60397 5.625 7.79183V12.0418C5.625 12.2297 5.69963 12.4099 5.83247 12.5427C5.9653 12.6755 6.14547 12.7502 6.33333 12.7502ZM9.16667 12.7502C9.35453 12.7502 9.5347 12.6755 9.66753 12.5427C9.80037 12.4099 9.875 12.2297 9.875 12.0418V7.79183C9.875 7.60397 9.80037 7.4238 9.66753 7.29096C9.5347 7.15812 9.35453 7.0835 9.16667 7.0835C8.9788 7.0835 8.79864 7.15812 8.6658 7.29096C8.53296 7.4238 8.45833 7.60397 8.45833 7.79183V12.0418C8.45833 12.2297 8.53296 12.4099 8.6658 12.5427C8.79864 12.6755 8.9788 12.7502 9.16667 12.7502Z" fill="#FBB016"/>
</svg>
