<svg width="58" height="62" viewBox="0 0 58 62" fill="none" xmlns="http://www.w3.org/2000/svg">
<path d="M44.4996 28.3074C44.3488 27.9744 44.1051 27.6919 43.7977 27.494C43.4904 27.2961 43.1324 27.191 42.7668 27.1915H35.1502V2.43737C35.1502 1.38627 34.2971 0.533203 33.246 0.533203H25.6293C24.5782 0.533203 23.7252 1.38627 23.7252 2.43737V27.1915H16.1085C15.7431 27.1918 15.3855 27.2972 15.0783 27.495C14.771 27.6928 14.5272 27.9748 14.3757 28.3074C14.0634 28.9891 14.1853 29.785 14.6766 30.3486L28.0057 45.582C28.184 45.7866 28.404 45.9506 28.651 46.0629C28.8981 46.1753 29.1663 46.2333 29.4377 46.2332C29.9861 46.2332 30.5078 45.9933 30.8696 45.582L44.1988 30.3486C44.6939 29.7888 44.8081 28.9891 44.4996 28.3074Z" fill="#E78769"/>
<path d="M50.3833 42.4249V53.8499H8.49167V42.4249H0.875V57.6582C0.875 59.7642 2.58113 61.4665 4.68333 61.4665H54.1917C56.2977 61.4665 58 59.7642 58 57.6582V42.4249H50.3833Z" fill="#E78769"/>
</svg>
