<svg width="19" height="20" viewBox="0 0 19 20" fill="none" xmlns="http://www.w3.org/2000/svg">
<path d="M14.3188 9.11625C14.2693 9.00695 14.1893 8.91425 14.0885 8.84928C13.9876 8.78431 13.8701 8.74984 13.7501 8.75H11.2501V0.625C11.2501 0.28 10.9701 0 10.6251 0H8.12508C7.78008 0 7.50008 0.28 7.50008 0.625V8.75H5.00008C4.88014 8.7501 4.76276 8.78467 4.66192 8.84961C4.56108 8.91455 4.48104 9.0071 4.43133 9.11625C4.32883 9.34 4.36883 9.60125 4.53008 9.78625L8.90508 14.7863C8.96358 14.8534 9.03581 14.9072 9.11689 14.9441C9.19797 14.981 9.28601 15.0001 9.37508 15C9.55508 15 9.72633 14.9213 9.84508 14.7863L14.2201 9.78625C14.3826 9.6025 14.4201 9.34 14.3188 9.11625Z" fill="#E78769"/>
<path d="M16.25 13.75V17.5H2.5V13.75H0V18.75C0 19.4412 0.56 20 1.25 20H17.5C18.1913 20 18.75 19.4412 18.75 18.75V13.75H16.25Z" fill="#E78769"/>
</svg>
