<svg xmlns="http://www.w3.org/2000/svg" width="32.599" height="22.921" viewBox="0 0 32.599 22.921">
  <g id="Group_152" data-name="Group 152" transform="translate(0 -76)">
    <path id="Path_150" data-name="Path 150" d="M29.733,76H2.865A2.869,2.869,0,0,0,0,78.865V96.056a2.869,2.869,0,0,0,2.865,2.865H29.733A2.868,2.868,0,0,0,32.6,96.056V78.865A2.868,2.868,0,0,0,29.733,76Zm-.4,1.91L18.325,88.859a2.865,2.865,0,0,1-4.054,0L3.266,77.91ZM1.91,95.667V79.255l8.254,8.21Zm1.357,1.344,8.251-8.2,1.4,1.4a4.775,4.775,0,0,0,6.751,0l1.406-1.4,8.251,8.2Zm27.421-1.344-8.254-8.2,8.254-8.21Z" fill="#fbb117"/>
  </g>
</svg>
