<svg width="36" height="26" viewBox="0 0 36 26" fill="none" xmlns="http://www.w3.org/2000/svg">
<path d="M33.6978 6.52814L18.9524 0.288807C18.4993 0.0981896 18.0126 0 17.521 0C17.0294 0 16.5428 0.0981896 16.0896 0.288807L1.34426 6.52814C0.945701 6.69672 0.605649 6.97899 0.366575 7.3397C0.1275 7.7004 0 8.12355 0 8.55629C0 8.98903 0.1275 9.41218 0.366575 9.77289C0.605649 10.1336 0.945701 10.4159 1.34426 10.5844L6.51189 12.7697V19.7966C6.50792 20.4276 6.66826 21.0487 6.97715 21.599C7.28604 22.1492 7.73284 22.6095 8.27359 22.9347C11.0798 24.5753 14.2719 25.44 17.5225 25.44C20.7731 25.44 23.9652 24.5753 26.7714 22.9347C27.3121 22.6095 27.7589 22.1492 28.0678 21.599C28.3767 21.0487 28.537 20.4276 28.5331 19.7966V12.7697L30.7352 11.8374V15.3183C30.4403 15.4459 30.1843 15.6491 29.9931 15.9073C29.8019 16.1656 29.6821 16.4697 29.646 16.789C29.6099 17.1083 29.6587 17.4314 29.7874 17.7259C29.9161 18.0203 30.1203 18.2755 30.3792 18.4658C30.1489 18.6352 29.9615 18.8563 29.8321 19.1113C29.7027 19.3662 29.6349 19.648 29.6341 19.9339V21.769C29.6341 21.9637 29.7115 22.1504 29.8491 22.288C29.9868 22.4257 30.1735 22.503 30.3682 22.503H32.5703C32.765 22.503 32.9517 22.4257 33.0893 22.288C33.227 22.1504 33.3043 21.9637 33.3043 21.769V19.9339C33.3036 19.648 33.2358 19.3662 33.1064 19.1113C32.977 18.8563 32.7896 18.6352 32.5593 18.4658C32.8182 18.2755 33.0223 18.0203 33.151 17.7259C33.2798 17.4314 33.3285 17.1083 33.2924 16.789C33.2563 16.4697 33.1366 16.1656 32.9454 15.9073C32.7541 15.6491 32.4981 15.4459 32.2033 15.3183V11.2164L33.6978 10.5844C34.0963 10.4159 34.4364 10.1336 34.6754 9.77289C34.9145 9.41218 35.042 8.98903 35.042 8.55629C35.042 8.12355 34.9145 7.7004 34.6754 7.3397C34.4364 6.97899 34.0963 6.69672 33.6978 6.52814ZM31.8362 16.9977C31.8362 17.0703 31.8147 17.1413 31.7744 17.2016C31.7341 17.262 31.6767 17.309 31.6097 17.3368C31.5426 17.3646 31.4688 17.3719 31.3976 17.3577C31.3264 17.3435 31.261 17.3086 31.2097 17.2573C31.1584 17.2059 31.1234 17.1405 31.1093 17.0693C31.0951 16.9981 31.1024 16.9244 31.1301 16.8573C31.1579 16.7902 31.205 16.7329 31.2653 16.6926C31.3257 16.6522 31.3966 16.6307 31.4692 16.6307C31.5666 16.6307 31.6599 16.6694 31.7287 16.7382C31.7976 16.807 31.8362 16.9004 31.8362 16.9977ZM31.8362 21.035H31.1022V19.9339C31.1022 19.8366 31.1409 19.7432 31.2097 19.6744C31.2785 19.6055 31.3719 19.5669 31.4692 19.5669C31.5666 19.5669 31.6599 19.6055 31.7287 19.6744C31.7976 19.7432 31.8362 19.8366 31.8362 19.9339V21.035ZM27.065 19.7966C27.0692 20.1721 26.9757 20.5421 26.7936 20.8704C26.6115 21.1987 26.3471 21.474 26.0263 21.6692C23.4458 23.1766 20.511 23.9711 17.5225 23.9711C14.5339 23.9711 11.5991 23.1766 9.01864 21.6692C8.6979 21.474 8.43347 21.1987 8.25136 20.8704C8.06924 20.5421 7.97572 20.1721 7.97997 19.7966V13.3907L16.0926 16.823C16.5457 17.0139 17.0323 17.1122 17.5239 17.1122C18.0156 17.1122 18.5022 17.0139 18.9553 16.823L27.065 13.3907V19.7966ZM33.1259 9.23234L18.3806 15.4717C18.1089 15.5858 17.8172 15.6446 17.5225 15.6446C17.2278 15.6446 16.9361 15.5858 16.6644 15.4717L1.91901 9.23234C1.78616 9.17615 1.67281 9.08206 1.59311 8.96182C1.51342 8.84159 1.47092 8.70054 1.47092 8.55629C1.47092 8.41204 1.51342 8.27099 1.59311 8.15076C1.67281 8.03052 1.78616 7.93643 1.91901 7.88024L16.6644 1.64091C16.936 1.52656 17.2278 1.46766 17.5225 1.46766C17.8172 1.46766 18.1089 1.52656 18.3806 1.64091L33.1259 7.88024C33.2588 7.93643 33.3722 8.03052 33.4518 8.15076C33.5315 8.27099 33.574 8.41204 33.574 8.55629C33.574 8.70054 33.5315 8.84159 33.4518 8.96182C33.3722 9.08206 33.2588 9.17615 33.1259 9.23234Z" fill="#FB6816"/>
</svg>
