<svg width="16" height="10" viewBox="0 0 16 10" fill="none" xmlns="http://www.w3.org/2000/svg">
<path d="M8.00001 10C13.2341 10 15.8291 5.437 15.937 5.24288C15.9783 5.16857 16 5.08495 16 4.99994C16 4.91492 15.9783 4.83131 15.937 4.757C15.8291 4.563 13.2341 0 8.00001 0C2.76589 0 0.170889 4.563 0.063014 4.75712C0.0217066 4.83143 2.86102e-05 4.91505 2.86102e-05 5.00006C2.86102e-05 5.08508 0.0217066 5.16869 0.063014 5.243C0.170889 5.437 2.76589 10 8.00001 10ZM14.9116 4.99925C14.3169 5.90062 11.9818 9 8.00001 9C4.00564 9 1.68089 5.90312 1.08839 5.00075C1.68314 4.09937 4.01826 1 8.00001 1C11.9944 1 14.3191 4.09688 14.9116 4.99925ZM8.00001 8C9.65426 8 11 6.65425 11 5C11 3.34575 9.65426 2 8.00001 2C6.34576 2 5.00001 3.34575 5.00001 5C5.00001 6.65425 6.34576 8 8.00001 8ZM8.00001 3C9.10276 3 10 3.89725 10 5C10 6.10275 9.10276 7 8.00001 7C6.89726 7 6.00001 6.10275 6.00001 5C6.00001 3.89725 6.89726 3 8.00001 3Z" fill="#789FBA"/>
</svg>
