<svg width="26" height="16" viewBox="0 0 26 16" fill="none" xmlns="http://www.w3.org/2000/svg">
<path d="M24.9439 8.48827C24.7196 8.79505 19.3762 16 12.5516 16C5.72703 16 0.383314 8.79505 0.159294 8.48856C0.0557813 8.34675 0 8.17572 0 8.00015C0 7.82458 0.0557813 7.65354 0.159294 7.51173C0.383314 7.20495 5.72703 0 12.5516 0C19.3762 0 24.7196 7.205 24.9439 7.51149C25.0476 7.65323 25.1034 7.82428 25.1034 7.99988C25.1034 8.17548 25.0476 8.34652 24.9439 8.48827ZM12.5516 1.65516C7.52457 1.65516 3.17064 6.43723 1.88178 8.00056C3.16897 9.56527 7.51379 14.3448 12.5516 14.3448C17.5784 14.3448 21.932 9.5636 23.2214 7.99944C21.9342 6.43478 17.5894 1.65516 12.5516 1.65516Z" fill="#FBB016"/>
<path d="M12.5517 12.9653C9.81377 12.9653 7.58618 10.7377 7.58618 7.99979C7.58618 5.26184 9.81377 3.03425 12.5517 3.03425C15.2897 3.03425 17.5173 5.26184 17.5173 7.99979C17.5173 10.7377 15.2897 12.9653 12.5517 12.9653ZM12.5517 4.68946C10.7263 4.68946 9.24139 6.17444 9.24139 7.99979C9.24139 9.82514 10.7264 11.3101 12.5517 11.3101C14.3771 11.3101 15.8621 9.82514 15.8621 7.99979C15.8621 6.17444 14.3771 4.68946 12.5517 4.68946Z" fill="#FBB016"/>
</svg>
