<svg width="16" height="18" viewBox="0 0 16 18" fill="none" xmlns="http://www.w3.org/2000/svg">
<path d="M9.45578 17.4601C9.29837 17.4601 9.1452 17.4091 9.01928 17.3146L6.10925 15.1321C6.0189 15.0643 5.94557 14.9765 5.89506 14.8755C5.84455 14.7744 5.81825 14.663 5.81825 14.5501V10.4615L0.714075 4.71933C0.351574 4.31038 0.114887 3.80545 0.0324606 3.26521C-0.0499653 2.72498 0.0253778 2.17244 0.249434 1.674C0.473491 1.17556 0.836726 0.752429 1.29548 0.455466C1.75424 0.158504 2.289 0.000345142 2.83548 0L13.1661 0C13.7125 0.000640969 14.2471 0.159061 14.7057 0.456223C15.1643 0.753386 15.5273 1.17665 15.7511 1.67514C15.9749 2.17364 16.05 2.72616 15.9674 3.26631C15.8847 3.80647 15.6479 4.31127 15.2853 4.72005L10.1833 10.4615V16.7326C10.1833 16.9256 10.1066 17.1106 9.9702 17.247C9.83377 17.3835 9.64873 17.4601 9.45578 17.4601ZM7.27326 14.1864L8.72827 15.2776V10.1851C8.72842 10.0069 8.79391 9.83507 8.91233 9.70201L14.1998 3.7532C14.3762 3.55392 14.4912 3.30799 14.5312 3.04494C14.5711 2.78188 14.5344 2.51288 14.4252 2.27022C14.316 2.02757 14.1392 1.82157 13.9158 1.67696C13.6925 1.53236 13.4321 1.45529 13.1661 1.45501H2.83548C2.56954 1.45541 2.30936 1.53252 2.08615 1.67709C1.86294 1.82166 1.68617 2.02755 1.57705 2.27007C1.46792 2.51259 1.43107 2.78144 1.47092 3.04438C1.51076 3.30731 1.62562 3.55317 1.8017 3.75247L7.08993 9.70201C7.20809 9.83518 7.27332 10.007 7.27326 10.1851V14.1864Z" fill="black"/>
</svg>
