<svg xmlns="http://www.w3.org/2000/svg" width="35.897" height="40.843" viewBox="0 0 35.897 40.843">
  <g id="Group_135" data-name="Group 135" transform="translate(-31)">
    <path id="Path_144" data-name="Path 144" d="M55.767,26.985c4.346-6.82,3.8-5.969,3.925-6.147a13.064,13.064,0,0,0,2.419-7.6,13.162,13.162,0,1,0-23.836,7.694l3.855,6.05C38.008,27.619,31,29.507,31,33.663c0,1.515.989,3.675,5.7,5.357a37.767,37.767,0,0,0,12.248,1.822c8.617,0,17.948-2.431,17.948-7.179C66.9,29.506,59.9,27.62,55.767,26.985ZM40.273,19.619q-.02-.031-.041-.06a10.769,10.769,0,1,1,17.519-.121c-.115.152.486-.782-8.8,13.794Zm8.675,18.83c-9.412,0-15.555-2.767-15.555-4.786,0-1.357,3.156-3.589,10.151-4.459l4.4,6.9a1.2,1.2,0,0,0,2.018,0l4.4-6.9c6.994.87,10.151,3.1,10.151,4.459C64.5,35.666,58.416,38.45,48.948,38.45Z" fill="#fbb117"/>
    <path id="Path_145" data-name="Path 145" d="M186.983,91a5.983,5.983,0,1,0,5.983,5.983A5.99,5.99,0,0,0,186.983,91Zm0,9.573a3.59,3.59,0,1,1,3.59-3.59A3.594,3.594,0,0,1,186.983,100.573Z" transform="translate(-138.034 -83.741)" fill="#fbb117"/>
  </g>
</svg>
