<svg xmlns="http://www.w3.org/2000/svg" width="43.856" height="43.858" viewBox="0 0 43.856 43.858">
  <g id="Group_151" data-name="Group 151" transform="translate(-0.001)">
    <path id="Path_146" data-name="Path 146" d="M34.633,0H16.22A3.224,3.224,0,0,0,13,3.22V40.637a3.224,3.224,0,0,0,3.22,3.221H34.632a3.224,3.224,0,0,0,3.221-3.22V3.22A3.224,3.224,0,0,0,34.633,0ZM14.462,5.848H36.391V33.624H14.462ZM16.22,1.462H34.632A1.76,1.76,0,0,1,36.391,3.22V4.386H14.462V3.22A1.76,1.76,0,0,1,16.22,1.462ZM34.633,42.4H16.22a1.76,1.76,0,0,1-1.758-1.758V35.086H36.391v5.552A1.76,1.76,0,0,1,34.633,42.4Z" transform="translate(-3.497)" fill="#fbb117"/>
    <path id="Path_147" data-name="Path 147" d="M28.655,36.624a2.924,2.924,0,1,0,2.924,2.924A2.927,2.927,0,0,0,28.655,36.624Zm0,4.386a1.462,1.462,0,1,1,1.462-1.462A1.463,1.463,0,0,1,28.655,41.01ZM25.731,4.462h2.924a.731.731,0,0,0,0-1.462H25.731a.731.731,0,0,0,0,1.462Zm5.117,0h.731a.731.731,0,1,0,0-1.462h-.731a.731.731,0,0,0,0,1.462Zm17.26-.315A.731.731,0,0,0,47.074,5.18a7.013,7.013,0,0,1,0,9.906.731.731,0,0,0,1.034,1.034A8.476,8.476,0,0,0,48.107,4.147Z" transform="translate(-6.726 -0.807)" fill="#fbb117"/>
    <path id="Path_148" data-name="Path 148" d="M38.3,6.154A.731.731,0,1,0,37.27,7.187a4.8,4.8,0,0,1,0,6.781A.731.731,0,0,0,38.3,15a6.262,6.262,0,0,0,0-8.848ZM3.51,5.524A.731.731,0,1,0,2.477,4.49a8.476,8.476,0,0,0,0,11.973A.731.731,0,1,0,3.51,15.43,7.012,7.012,0,0,1,3.51,5.524Z" transform="translate(0 -1.15)" fill="#fbb117"/>
    <path id="Path_149" data-name="Path 149" d="M7.959,6.49a.73.73,0,0,0-1.034,0,6.262,6.262,0,0,0,0,8.848A.731.731,0,1,0,7.959,14.3a4.8,4.8,0,0,1,0-6.781.731.731,0,0,0,0-1.034Z" transform="translate(-1.37 -1.688)" fill="#fbb117"/>
  </g>
</svg>
