<?xml version="1.0" encoding="utf-8"?>
<!-- Generator: Adobe Illustrator 14.0.0, SVG Export Plug-In . SVG Version: 6.00 Build 43363)  -->
<!DOCTYPE svg PUBLIC "-//W3C//DTD SVG 1.1//EN" "http://www.w3.org/Graphics/SVG/1.1/DTD/svg11.dtd">
<svg version="1.1" id="Layer_1" xmlns="http://www.w3.org/2000/svg" xmlns:xlink="http://www.w3.org/1999/xlink" x="0px" y="0px"
	 width="41px" height="39.917px" viewBox="0 0 41 39.917" enable-background="new 0 0 41 39.917" xml:space="preserve">
<g>
	<rect x="1.25" y="1" fill="#FFFFFF" width="39" height="38"/>
	<rect x="1.75" y="1.5" fill="none" stroke="#0B436A" stroke-opacity="0.4" width="38" height="37"/>
</g>
<path d="M17.854,18.183l3.934-3.934C21.949,14.09,22.166,14,22.393,14s0.443,0.09,0.604,0.249c0.08,0.08,0.145,0.175,0.188,0.279
	c0.044,0.104,0.066,0.216,0.066,0.33c0,0.113-0.022,0.225-0.066,0.33c-0.043,0.104-0.107,0.199-0.188,0.279l-3.942,3.925
	c-0.081,0.08-0.145,0.174-0.188,0.279S18.8,19.887,18.8,20c0,0.113,0.022,0.225,0.066,0.33s0.107,0.199,0.188,0.279l3.942,3.925
	c0.162,0.161,0.253,0.379,0.254,0.606c0,0.228-0.089,0.446-0.249,0.606c-0.161,0.162-0.378,0.253-0.605,0.254
	s-0.446-0.089-0.607-0.249l-3.934-3.934c-0.481-0.482-0.752-1.135-0.752-1.817C17.102,19.319,17.373,18.665,17.854,18.183z"/>
</svg>
