<svg width="42" height="42" viewBox="0 0 42 42" fill="none" xmlns="http://www.w3.org/2000/svg">
<path d="M42.0002 40.2501C42.0002 40.7142 41.8158 41.1593 41.4876 41.4875C41.1595 41.8156 40.7144 42 40.2503 42H1.75271C1.28861 42 0.843519 41.8156 0.515351 41.4875C0.187183 41.1593 0.00282001 40.7142 0.00282001 40.2501C0.00282001 39.786 0.187183 39.3409 0.515351 39.0127C0.843519 38.6846 1.28861 38.5002 1.75271 38.5002H40.2503C40.7144 38.5002 41.1595 38.6846 41.4876 39.0127C41.8158 39.3409 42.0002 39.786 42.0002 40.2501ZM0.512038 14.9677C0.134976 14.2683 -0.0397117 13.4777 0.00758046 12.6845C0.0548726 11.8914 0.322273 11.1271 0.779771 10.4775C1.52743 9.38052 2.52869 8.4801 3.69859 7.85266L16.8245 1.0211C18.1146 0.350242 19.5474 0 21.0015 0C22.4556 0 23.8883 0.350242 25.1785 1.0211L38.3026 7.85791C39.4725 8.48535 40.4738 9.38577 41.2215 10.4827C41.679 11.1324 41.9464 11.8966 41.9937 12.6898C42.0409 13.4829 41.8663 14.2736 41.4892 14.973C41.0833 15.7409 40.4744 16.3827 39.729 16.8285C38.9835 17.2744 38.13 17.5072 37.2615 17.5016H36.7505V31.5007H38.5004C38.9645 31.5007 39.4096 31.685 39.7377 32.0132C40.0659 32.3414 40.2503 32.7865 40.2503 33.2506C40.2503 33.7147 40.0659 34.1597 39.7377 34.4879C39.4096 34.8161 38.9645 35.0004 38.5004 35.0004H3.5026C3.0385 35.0004 2.59341 34.8161 2.26524 34.4879C1.93707 34.1597 1.75271 33.7147 1.75271 33.2506C1.75271 32.7865 1.93707 32.3414 2.26524 32.0132C2.59341 31.685 3.0385 31.5007 3.5026 31.5007H5.25249V17.5016H4.74152C3.8721 17.507 3.01789 17.2736 2.27206 16.8267C1.52622 16.3799 0.917415 15.7369 0.512038 14.9677ZM8.75227 31.5007H14.0019V17.5016H8.75227V31.5007ZM17.5017 17.5016V31.5007H24.5013V17.5016H17.5017ZM33.2507 17.5016H28.0011V31.5007H33.2507V17.5016ZM3.61284 13.3456C3.72264 13.548 3.88602 13.7163 4.08511 13.832C4.28419 13.9478 4.51128 14.0065 4.74152 14.0018H37.2615C37.4917 14.0065 37.7188 13.9478 37.9179 13.832C38.117 13.7163 38.2803 13.548 38.3901 13.3456C38.4701 13.2118 38.5088 13.0574 38.5013 12.9017C38.4939 12.7461 38.4406 12.5961 38.3481 12.4706C37.9242 11.8405 37.3545 11.3219 36.6875 10.9587L23.5633 4.1219C22.7724 3.71142 21.8944 3.49714 21.0032 3.49714C20.1121 3.49714 19.2341 3.71142 18.4432 4.1219L5.31898 10.9587C4.65225 11.3231 4.08274 11.8422 3.65834 12.4724C3.56575 12.5973 3.51205 12.7468 3.50396 12.9021C3.49587 13.0574 3.53374 13.2117 3.61284 13.3456Z" fill="#FBB016"/>
</svg>
