<svg id="Group_128" data-name="Group 128" xmlns="http://www.w3.org/2000/svg" width="53.998" height="62" viewBox="0 0 53.998 62">
  <path id="Path_139" data-name="Path 139" d="M58.663,40.828a4.135,4.135,0,0,0-5.771-2.392L52,38.881l-.475-.236a6.236,6.236,0,0,0-5.212-.1l-1.547-.387a5.452,5.452,0,0,0-4.536.915L37.666,41h-4.43L31.8,40.281a12.135,12.135,0,0,0-12.158.757l-3.144,2.1-1.45.724-1.152-2.3a1,1,0,0,0-1.289-.472l-7,3A1,1,0,0,0,5.1,45.426l8,17a1,1,0,0,0,1.4.442l7-4a1,1,0,0,0,.4-1.315l-1.064-2.127a13.8,13.8,0,0,1,9.377-1.244l1.819.4a17.39,17.39,0,0,0,13.8-2.768l12.751-9a1,1,0,0,0,.371-1.133Zm-8.488-.581-4.542,3.894a5,5,0,0,0-1.23-1.783L46.224,40.9a4.2,4.2,0,0,1,3.951-.653Zm-8.744.43a3.431,3.431,0,0,1,2.627-.6l-1.5,1.2A4.934,4.934,0,0,0,41,41ZM14.443,60.6l-7.1-15.084,5.181-2.22,7.159,14.3Zm30.23-10.411a15.383,15.383,0,0,1-12.212,2.449l-1.819-.4a15.8,15.8,0,0,0-10.7,1.41l-4-7.992,1.5-.752a1.05,1.05,0,0,0,.108-.063l3.2-2.13A10.135,10.135,0,0,1,30.9,42.07l1.649.825A1,1,0,0,0,33,43h8a3.006,3.006,0,0,1,2.829,2H35v2H45a.992.992,0,0,0,.65-.241l6.9-5.919,1.23-.615a2.137,2.137,0,0,1,2.982,1.236l.049.15Z" transform="translate(-5.008 -1)" fill="#fbb117"/>
  <path id="Path_140" data-name="Path 140" d="M35.718,7a10,10,0,0,0-7.409,16.39,7.269,7.269,0,0,1,1.6,3.628A.99.99,0,0,0,29,28v6a1,1,0,0,0,1,1h1.1a5,5,0,0,0,9.8,0H42a1,1,0,0,0,1-1V28a.99.99,0,0,0-.911-.982A7.319,7.319,0,0,1,43.7,23.38,10,10,0,0,0,35.718,7ZM36,37a3,3,0,0,1-2.816-2h5.632A3,3,0,0,1,36,37Zm5-4H31V29H41Zm1.16-10.9a9.331,9.331,0,0,0-2.1,4.9H31.937a9.272,9.272,0,0,0-2.091-4.89A8,8,0,0,1,35.772,9a7.834,7.834,0,0,1,5.806,2.262A8,8,0,0,1,42.16,22.1Z" transform="translate(-5.008 -1)" fill="#fbb117"/>
  <path id="Path_141" data-name="Path 141" d="M36,11v2a4,4,0,0,1,4,4h2A6.006,6.006,0,0,0,36,11ZM35,1h2V5H35Zm9.287,6.3,3-3L48.7,5.711l-3,3Zm-21-1.587L24.7,4.3l3,3L26.29,8.71Zm21.995,18L46.7,22.295l3,3-1.414,1.414Zm-22,2.583,3-3L27.7,24.707l-3,3ZM48,15h4v2H48ZM20,15h4v2H20Z" transform="translate(-5.008 -1)" fill="#fbb117"/>
</svg>
