<svg width="40" height="40" viewBox="0 0 40 40" fill="none" xmlns="http://www.w3.org/2000/svg">
<path d="M16.875 28.5939C17.3063 28.5939 17.6563 28.2439 17.6563 27.8126C17.6563 27.3814 17.3063 27.0314 16.875 27.0314C16.4438 27.0314 16.0938 27.3814 16.0938 27.8126C16.0938 28.2439 16.4438 28.5939 16.875 28.5939Z" fill="#FB6816"/>
<path d="M0.228869 30.3961L9.60388 39.7711C9.6764 39.8437 9.76251 39.9012 9.85728 39.9405C9.95205 39.9798 10.0536 40 10.1562 40C10.2588 40 10.3604 39.9798 10.4552 39.9405C10.5499 39.9012 10.636 39.8437 10.7086 39.7711L15.8648 34.6149C15.9374 34.5424 15.9949 34.4562 16.0342 34.3615C16.0735 34.2667 16.0937 34.1651 16.0937 34.0625C16.0937 33.9599 16.0735 33.8584 16.0342 33.7636C15.9949 33.6688 15.9374 33.5827 15.8648 33.5102L15.6359 33.2813H26.8976C27.8867 33.2813 28.8305 32.9105 29.5584 32.2348L39.0363 23.3521C39.9435 22.5095 40.2441 21.171 39.7839 20.0217C39.6205 19.6116 39.3689 19.2426 39.0468 18.9408C38.7248 18.6389 38.3403 18.4117 37.9205 18.2752C37.5011 18.1375 37.0566 18.0938 36.6184 18.1472C36.1802 18.2006 35.7592 18.3499 35.3852 18.5843C35.3802 18.5874 33.2809 19.9649 33.2809 19.9649C33.2666 15.73 30.7071 11.214 27.1838 9.18095C27.3897 8.94417 27.5461 8.66857 27.6437 8.3704C28.0469 7.14384 27.3767 5.81633 26.1484 5.41079C26.1099 5.39797 26.0715 5.38665 26.033 5.37477L28.0441 1.76211C28.1013 1.65956 28.1346 1.54544 28.1415 1.42824C28.1484 1.31105 28.1288 1.1938 28.0841 1.08524C28.0396 0.976596 27.9711 0.879416 27.8837 0.800944C27.7964 0.722472 27.6924 0.664732 27.5797 0.632032C26.1377 0.212735 24.639 0 23.125 0C21.6113 0 20.1123 0.212735 18.6703 0.631719C18.5575 0.664457 18.4535 0.72221 18.3662 0.800682C18.2788 0.879154 18.2102 0.976322 18.1656 1.08496C18.1209 1.19359 18.1014 1.31089 18.1084 1.42813C18.1153 1.54537 18.1486 1.65953 18.2058 1.76211L20.2169 5.37477C20.1779 5.38696 20.1388 5.3986 20.0997 5.41141C18.8733 5.81633 18.2034 7.14352 18.6065 8.37095C18.7048 8.66888 18.8618 8.94409 19.0683 9.18032C15.4925 11.2436 12.9687 15.806 12.9687 20C12.9687 20.1145 12.9715 20.2274 12.9751 20.3394C11.5759 20.7211 10.275 21.4167 9.18091 22.3746L6.80661 24.4519L6.48981 24.1352C6.41729 24.0626 6.33118 24.0051 6.23641 23.9658C6.14164 23.9265 6.04006 23.9063 5.93747 23.9063C5.83488 23.9063 5.7333 23.9265 5.63853 23.9658C5.54375 24.0051 5.45765 24.0626 5.38512 24.1352L0.228869 29.2914C0.156311 29.364 0.0987528 29.4501 0.0594826 29.5448C0.0202125 29.6396 0 29.7412 0 29.8438C0 29.9464 0.0202125 30.0479 0.0594826 30.1427C0.0987528 30.2375 0.156311 30.3236 0.228869 30.3961ZM20.065 1.88938C21.066 1.67203 22.0914 1.5625 23.125 1.5625C24.1586 1.5625 25.184 1.67203 26.1853 1.88938L24.4443 5.01641C23.5691 4.89403 22.6812 4.89403 21.806 5.01641L20.065 1.88938ZM20.5875 6.89579C22.1906 6.37118 23.9383 6.33149 25.6604 6.89516C26.0702 7.03032 26.294 7.47344 26.1594 7.88243C26.1111 8.03125 26.0189 8.16201 25.895 8.25757C25.7711 8.35313 25.6213 8.40905 25.4651 8.41798C23.9245 7.92813 22.3244 7.92727 20.7846 8.41641H20.7843C20.4632 8.39634 20.1907 8.18634 20.0906 7.88266C19.956 7.47313 20.1797 7.03001 20.5875 6.89579ZM21.0195 9.98563C22.3742 9.49767 23.7777 9.4861 25.1358 9.95274C28.7656 11.2008 31.7187 15.7081 31.7187 20C31.7187 20.3638 31.6959 20.7105 31.6507 21.0346L27.8955 23.4982C27.3143 22.7781 26.4331 22.3438 25.4687 22.3438H23.9062V21.4282C24.8156 21.1056 25.4687 20.2371 25.4687 19.2188C25.4687 17.9263 24.4174 16.875 23.125 16.875C22.6944 16.875 22.3437 16.5247 22.3437 16.0938C22.3437 15.6628 22.6944 15.3125 23.125 15.3125C23.4018 15.3125 23.6938 15.4538 23.97 15.7209C24.2801 16.0209 24.7748 16.0126 25.0748 15.7029C25.3748 15.3927 25.3665 14.8981 25.0565 14.5981C24.66 14.2142 24.2633 13.9973 23.9062 13.8788V12.9688C23.9062 12.5373 23.5565 12.1875 23.125 12.1875C22.6935 12.1875 22.3437 12.5373 22.3437 12.9688V13.8843C21.4346 14.2069 20.7812 15.0754 20.7812 16.0938C20.7812 17.3862 21.8326 18.4375 23.125 18.4375C23.5559 18.4375 23.9062 18.7878 23.9062 19.2188C23.9062 19.6497 23.5559 20 23.125 20C22.7912 20 22.431 19.79 22.1106 19.4089C21.8329 19.0787 21.34 19.036 21.0098 19.3136C20.6796 19.5914 20.6369 20.0842 20.9146 20.4144C21.3321 20.9113 21.8234 21.2574 22.3437 21.4319V22.3438H22.0837C21.6998 22.3438 21.5274 22.0935 21.257 21.9187C19.6062 20.6815 17.5617 20 15.4992 20C15.1767 20 14.8535 20.0168 14.5319 20.0495C14.5319 20.033 14.5312 20.0168 14.5312 20C14.5312 15.7681 17.442 11.2759 21.0195 9.98563ZM10.2101 23.5501C11.6779 22.2647 13.564 21.5625 15.4992 21.5625C17.2258 21.5625 18.9376 22.1328 20.3188 23.1684C20.518 23.2849 21.0729 23.9063 22.0833 23.9063H25.4687C26.358 23.9063 27.0312 24.6292 27.0312 25.4688C27.0312 26.3303 26.3302 27.0313 25.4687 27.0313H20C19.5685 27.0313 19.2187 27.381 19.2187 27.8125C19.2187 28.244 19.5685 28.5938 20 28.5938H25.4687C27.1918 28.5938 28.5937 27.1918 28.5937 25.4688C28.5937 25.2896 28.5779 25.1129 28.548 24.939L36.2198 19.9054C36.3996 19.7941 36.6015 19.7234 36.8115 19.6983C37.0215 19.6732 37.2344 19.6943 37.4353 19.7601C37.6376 19.826 37.8228 19.9356 37.978 20.0811C38.1331 20.2266 38.2544 20.4045 38.3331 20.6021C38.5587 21.1649 38.417 21.7951 37.9703 22.2098L28.4927 31.0922C28.0595 31.4955 27.4894 31.7194 26.8976 31.7188H14.0735L7.91411 25.5591L10.2101 23.5501ZM5.93755 25.7923L14.2078 34.0625L10.1562 38.1141L1.8859 29.8438L5.93755 25.7923Z" fill="#FB6816"/>
</svg>
