<svg xmlns="http://www.w3.org/2000/svg" width="73.421" height="62.125" viewBox="0 0 73.421 62.125">
  <g id="Group_76" data-name="Group 76" opacity="0.06">
    <path id="Path_9" data-name="Path 9" d="M25.415,64.784H15.531a4.218,4.218,0,0,1-4.236-4.236V59.137A10.883,10.883,0,0,1,14.6,51.15a10.885,10.885,0,0,1,7.987-3.309h2.824a2.863,2.863,0,0,0,2.824-2.824V39.369a2.863,2.863,0,0,0-2.824-2.824H22.591a22.015,22.015,0,0,0-8.758,1.787A22.377,22.377,0,0,0,1.787,50.378,22.005,22.005,0,0,0,0,59.136V90.2a8.17,8.17,0,0,0,2.471,6,8.172,8.172,0,0,0,6,2.47H25.416A8.435,8.435,0,0,0,33.887,90.2V73.256a8.437,8.437,0,0,0-8.472-8.472Zm45.537,2.471a8.17,8.17,0,0,0-6-2.471H55.067a4.218,4.218,0,0,1-4.235-4.236V59.137a11.3,11.3,0,0,1,11.3-11.3h2.823a2.864,2.864,0,0,0,2.824-2.824V39.369a2.864,2.864,0,0,0-2.824-2.824H62.128a22.02,22.02,0,0,0-8.76,1.787A22.383,22.383,0,0,0,41.323,50.378a22.011,22.011,0,0,0-1.788,8.759V90.2a8.435,8.435,0,0,0,8.471,8.472H64.95A8.435,8.435,0,0,0,73.421,90.2V73.256A8.17,8.17,0,0,0,70.952,67.255Z" transform="translate(0 -36.545)" fill="#0a3e62"/>
  </g>
</svg>
