<svg width="27" height="38" viewBox="0 0 27 38" fill="none" xmlns="http://www.w3.org/2000/svg">
<path d="M25.0991 25.0991V21.1432L23.4297 21.7927L23.4248 21.7817L23.385 21.7095C22.7453 20.7135 21.7107 20.0205 20.5457 19.8093L16.5287 19.0784V18.7613C18.0309 17.8889 19.131 16.4007 19.4738 14.6413C20.5868 14.4112 21.426 13.4237 21.426 12.2435V6.19702C21.427 5.36948 21.1605 4.56378 20.6663 3.90001C20.1721 3.23624 19.4766 2.74994 18.6835 2.51358L18.3774 2.20749C16.9535 0.783581 15.0607 0 13.0472 0C8.89119 0 5.50955 3.38103 5.50955 7.53768V12.2435C5.50955 13.4237 6.34884 14.4112 7.46177 14.6413C7.8052 16.4007 8.90466 17.8895 10.4069 18.7613V19.0784L6.39047 19.8087C5.22673 20.0199 4.19277 20.7116 3.55244 21.707L3.51571 21.7964L1.83652 21.1432V25.0991C0.823984 25.0991 0 25.9231 0 26.9356V29.3843C0 30.3968 0.823984 31.2208 1.83652 31.2208V33.476L13.4678 38L25.0991 33.476V31.2208C26.1116 31.2208 26.9356 30.3968 26.9356 29.3843V26.9356C26.9356 25.9231 26.1116 25.0991 25.0991 25.0991ZM17.6759 20.5317L20.3266 21.0134C21.1071 21.1555 21.7982 21.606 22.2592 22.2476L16.3364 24.5506L17.6759 20.5317ZM11.6833 19.3226C12.2483 19.4952 12.8471 19.5895 13.4678 19.5895C14.0885 19.5895 14.6872 19.4952 15.2523 19.3226L13.4678 20.6608L11.6833 19.3226ZM12.5361 21.4922L11.2866 22.741L10.4761 20.31L10.8661 20.2396L12.5361 21.4922ZM16.0695 20.2403L16.4595 20.3107L15.649 22.7416L14.3995 21.4928L16.0695 20.2403ZM19.5895 13.2976V11.1893C19.9538 11.4017 20.2017 11.7923 20.2017 12.2435C20.2017 12.6946 19.9538 13.0852 19.5895 13.2976ZM7.34607 13.2976C6.98183 13.0852 6.7339 12.6946 6.7339 12.2435C6.7339 11.7923 6.98183 11.4017 7.34607 11.1893V13.2976ZM7.34607 9.18259V9.88169C7.13139 9.9378 6.92542 10.0231 6.7339 10.1351V7.53768C6.7339 4.05687 9.56581 1.22435 13.0472 1.22435C14.7332 1.22435 16.3193 1.88121 17.5118 3.07372L18.0517 3.61427L18.2164 3.65467C18.7838 3.79568 19.2876 4.12268 19.6475 4.58349C20.0073 5.0443 20.2024 5.61236 20.2017 6.19702V10.1351C20.0103 10.0228 19.8043 9.93753 19.5895 9.88169V9.18259H17.6483C15.9893 9.18259 14.4038 8.39044 13.409 7.06386L12.9224 6.41373L11.706 7.63073C10.7044 8.63163 9.37359 9.18259 7.95824 9.18259H7.34607ZM8.57042 13.4678V10.3788C10.0819 10.2386 11.4844 9.58295 12.5716 8.49634L12.8097 8.25821C14.0371 9.61295 15.8051 10.4069 17.6483 10.4069H18.3652V13.4678C18.3652 16.1681 16.1681 18.3652 13.4678 18.3652C10.7675 18.3652 8.57042 16.1681 8.57042 13.4678ZM6.60901 21.0134L9.25972 20.5317L10.5992 24.5506L4.67516 22.247C5.13613 21.6048 5.8285 21.1555 6.60901 21.0134ZM1.22435 29.3843V26.9356C1.22435 26.5977 1.49921 26.3234 1.83652 26.3234C2.84905 26.3234 3.67304 27.1474 3.67304 28.1599C3.67304 29.1725 2.84905 29.9965 1.83652 29.9965C1.49921 29.9965 1.22435 29.7222 1.22435 29.3843ZM12.8556 36.4475L3.06086 32.6392V30.9612C4.14012 30.4874 4.89738 29.4118 4.89738 28.1599C4.89738 26.908 4.14012 25.8325 3.06086 25.3586V22.9332L12.8556 26.7421V36.4475ZM11.0381 24.722L13.4678 22.2917L15.8975 24.7214L13.4678 25.6666L11.0381 24.722ZM23.8747 32.6386L14.08 36.4469V26.7421L23.8747 22.9332V25.3586C22.7955 25.8325 22.0382 26.908 22.0382 28.1599C22.0382 29.4118 22.7955 30.4874 23.8747 30.9612V32.6386ZM25.7112 29.3843C25.7112 29.7222 25.4364 29.9965 25.0991 29.9965C24.0865 29.9965 23.2626 29.1725 23.2626 28.1599C23.2626 27.1474 24.0865 26.3234 25.0991 26.3234C25.4364 26.3234 25.7112 26.5977 25.7112 26.9356V29.3843Z" fill="#FB6816"/>
</svg>
