<svg xmlns="http://www.w3.org/2000/svg" width="17.771" height="17.771" viewBox="0 0 17.771 17.771">
  <g id="Group_166" data-name="Group 166" transform="translate(-0.006)">
    <path id="Path_139" data-name="Path 139" d="M17.609,16.8,13.021,12.29a7.257,7.257,0,0,0,1.94-4.932A7.419,7.419,0,0,0,7.483,0,7.418,7.418,0,0,0,.006,7.358a7.418,7.418,0,0,0,7.477,7.358,7.519,7.519,0,0,0,4.706-1.643L16.8,17.606a.581.581,0,0,0,.813,0,.56.56,0,0,0,0-.8ZM7.483,13.584A6.277,6.277,0,0,1,1.156,7.358,6.277,6.277,0,0,1,7.483,1.132a6.277,6.277,0,0,1,6.326,6.226A6.277,6.277,0,0,1,7.483,13.584Z"/>
  </g>
</svg>
