<svg width="30" height="31" viewBox="0 0 30 31" fill="none" xmlns="http://www.w3.org/2000/svg">
<path d="M28.2075 12.779C28.0867 12.6639 27.957 12.5585 27.8197 12.4637V3.37788C27.82 2.48538 27.4669 1.62905 26.8377 0.996087C26.2085 0.363122 25.3543 0.00499998 24.4618 0H3.36317C2.46968 0.00333791 1.61395 0.360761 0.983538 0.993935C0.353122 1.62711 -0.000561913 2.48439 6.70123e-07 3.37788V27.6368C0.00222057 28.5281 0.357266 29.3823 0.987502 30.0125C1.61774 30.6427 2.47188 30.9978 3.36317 31H24.4618C25.3529 30.9972 26.2067 30.642 26.8368 30.0119C27.467 29.3818 27.8222 28.5279 27.825 27.6368V17.5263C29.2995 16.3492 29.5896 14.1463 28.2075 12.779ZM26.259 27.6368C26.2586 27.8724 26.2118 28.1056 26.1212 28.3231C26.0307 28.5406 25.8982 28.7382 25.7313 28.9045C25.5644 29.0708 25.3664 29.2026 25.1486 29.2924C24.9308 29.3821 24.6974 29.4281 24.4618 29.4277H3.36317C2.88999 29.4255 2.43683 29.2366 2.10224 28.902C1.76765 28.5674 1.5787 28.1142 1.57649 27.641V3.37788C1.57536 2.90232 1.76278 2.44571 2.09767 2.10806C2.43255 1.77041 2.88762 1.57926 3.36317 1.57648H24.4618C24.9373 1.57926 25.3924 1.77041 25.7273 2.10806C26.0622 2.44571 26.2496 2.90232 26.2485 3.37788V11.8909C25.0451 11.7196 24.0067 12.5036 23.2542 13.3612L14.3902 22.2284C13.9868 22.6353 13.7602 23.1848 13.7596 23.7576V25.8932C13.7601 26.2481 13.9014 26.5882 14.1524 26.839C14.4034 27.0899 14.7437 27.2309 15.0985 27.2311C16.1337 27.1544 17.9993 27.5307 18.7623 26.6006L26.259 19.1028V27.6368ZM15.3613 23.6094L17.3729 25.621C17.4349 25.6767 15.3581 25.6399 15.3329 25.6494C15.3424 25.6189 15.3056 23.5579 15.3613 23.6094ZM16.4123 22.4386L23.8123 15.0386L25.9521 17.1784L18.5521 24.5711L16.4123 22.4386ZM27.0998 16.0255L27.0693 16.056L24.9305 13.9162C25.4876 13.3013 26.5291 13.2877 27.0998 13.892V13.8888C27.382 14.1728 27.5404 14.5568 27.5404 14.9572C27.5404 15.3575 27.382 15.7416 27.0998 16.0255Z" fill="#0B436A"/>
<path d="M9.2739 6.44581H18.5489C19.5768 6.4416 19.582 4.87353 18.5489 4.86932H9.2739C8.24603 4.87353 8.24078 6.4416 9.2739 6.44581ZM5.67742 12.6918H19.3634C20.3902 12.6887 20.3976 11.1196 19.3634 11.1154H5.67742C4.6506 11.1196 4.64324 12.6876 5.67742 12.6918ZM5.67742 18.4555H15.1363C16.1642 18.4513 16.1694 16.8832 15.1363 16.879H5.67742C4.64955 16.8832 4.64429 18.4513 5.67742 18.4555ZM11.1573 22.6405H5.67742C4.6485 22.6447 4.64534 24.2128 5.67742 24.217H11.1573C12.1862 24.2128 12.1893 22.6447 11.1573 22.6405Z" fill="#0B436A"/>
</svg>
