<svg id="Group_129" data-name="Group 129" xmlns="http://www.w3.org/2000/svg" width="62.324" height="64" viewBox="0 0 62.324 64">
  <path id="Path_142" data-name="Path 142" d="M63,62.52l-19.91-32V13.73l14.81-.07a.966.966,0,0,0,.77-1.54L54.36,6.41l4.28-4.8A1,1,0,0,0,57.91,0H42.14a1,1,0,0,0-1,1V30.48l-9.9,13.46V31.55a1,1,0,0,0-.49-.84l-7.23-4.13V18.32h8.27a1,1,0,0,0,.83-.45l6-9.52a3.013,3.013,0,0,0-5.06-3.27L29,11.81H19.34A5.35,5.35,0,0,0,24,6.36,5.32,5.32,0,0,0,18.88.88a5.32,5.32,0,0,0-5.13,5.48,5.35,5.35,0,0,0,4.68,5.45H16.21A9.19,9.19,0,0,0,9,15.33L1.52,25a3.29,3.29,0,0,0,.2,4.25A3.27,3.27,0,0,0,6.63,29l5.93-7.36V49.11L1.07,62.39A1,1,0,0,0,1.8,64H62.2a1,1,0,0,0,.84-.5A.93.93,0,0,0,63,62.52ZM43.11,1.94H55.75L52.38,5.71A1,1,0,0,0,52.33,7L56,11.73l-12.86.06ZM15.68,6.36a3.39,3.39,0,0,1,3.2-3.54,3.38,3.38,0,0,1,3.2,3.54,3.38,3.38,0,0,1-3.2,3.54,3.39,3.39,0,0,1-3.2-3.54ZM42.07,32.52,44.21,36H39.53ZM13.53,18.94a1.44,1.44,0,0,0-1.62.46L5.12,27.82a1.36,1.36,0,0,1-2,.09,1.33,1.33,0,0,1-.08-1.72l7.51-9.67a7.22,7.22,0,0,1,5.65-2.77H29.47a1,1,0,0,0,.81-.42l4.84-7.17a1.14,1.14,0,0,1,1.26-.41,1.06,1.06,0,0,1,.64.67,1,1,0,0,1-.1.91l-5.66,9H22.55a1,1,0,0,0-1,1v9.8a1,1,0,0,0,.49.84l7.23,4.12V43.9L26.73,42V33.63a1,1,0,0,0-.47-.83l-7.61-4.56a.99.99,0,0,0-1.49.84v14.7l-2.68,3.1V20.31a1.42,1.42,0,0,0-.95-1.37Zm9,20a1,1,0,0,0-1.31.15l-2.1,2.43V30.78l5.67,3.4v6.43Zm-.43,2.1,2.95,2.15a.9.9,0,0,0,.32.23l4,2.9L14.82,62.06H3.92Zm-4.64,21,14-15.21v-.06L38.1,37.9h7.32l15,24.16Z" transform="translate(-0.837)" fill="#fbb117"/>
</svg>
