<svg id="Group_130" data-name="Group 130" xmlns="http://www.w3.org/2000/svg" width="67.039" height="66.088" viewBox="0 0 67.039 66.088">
  <path id="Path_143" data-name="Path 143" d="M21.978,37.228a1.282,1.282,0,1,1-1.221-1.34A1.282,1.282,0,0,1,21.978,37.228Zm51.16,21.329-3.847,1.491a2.971,2.971,0,0,1-3.837-1.693l-.336-.866L61.989,58.8a4.016,4.016,0,0,1-2.871,4.548l-.13.035a4.026,4.026,0,0,1-4.36,5.268,4.042,4.042,0,0,1-4.879,4.192,4,4,0,0,1-.495,2.055,4.088,4.088,0,0,1-2.466,1.952A4.038,4.038,0,0,1,45.7,77a3.9,3.9,0,0,1-1.947-.521l-1.06-.609a4.1,4.1,0,0,1-2.166,1.553,4.163,4.163,0,0,1-1.208.18,4.126,4.126,0,0,1-3.84-2.644,4.114,4.114,0,0,1-5.359-2.049,4.13,4.13,0,0,1-6.047-4.251,4.129,4.129,0,0,1-3.727-6.07l1.035-1.936a8.459,8.459,0,0,1-.455-1.739c-.2-1.066-.353-1.727-.824-1.91-.279-.108-1-.422-2.239-.974l-.416.941a2.964,2.964,0,0,1-3.911,1.514L9.76,56.813A2.971,2.971,0,0,1,8.246,52.9L16.91,33.3a2.971,2.971,0,0,1,3.911-1.513l3.773,1.668a2.969,2.969,0,0,1,1.514,3.911l-.65,1.47,2.456,1.133c.026.012.052.025.077.039,1.35.76,2.759.429,4.543.011,2.329-.545,5.2-1.216,8.54.749,4.62-2.857,8.17-1.409,10.791-.338,1.953.8,3.115,1.22,4.29.609L58.3,39.894l-.59-1.521A2.969,2.969,0,0,1,59.4,34.536l3.847-1.491a2.971,2.971,0,0,1,3.837,1.693L74.831,54.72a2.968,2.968,0,0,1-1.693,3.837ZM24.13,36.491a.8.8,0,0,0-.41-1.059l-3.774-1.668a.792.792,0,0,0-.32-.068.815.815,0,0,0-.294.055.8.8,0,0,0-.445.422l-8.664,19.6a.808.808,0,0,0,.41,1.059L14.408,56.5a.808.808,0,0,0,1.059-.41Zm1.06,29.59L27.661,61.8a1.964,1.964,0,0,0-3.533-1.71L22.25,63.605a1.974,1.974,0,0,0,.806,2.66,1.973,1.973,0,0,0,2.134-.184Zm4.7,4.118,2.73-5.287a1.962,1.962,0,0,0-3.144-1.926l-3.058,5.371a1.974,1.974,0,0,0,.806,2.659,1.976,1.976,0,0,0,2.666-.818Zm5.526,2.155L37.837,67.7a1.962,1.962,0,0,0-3.3-1.782L31.9,71.026a1.962,1.962,0,0,0,3.52,1.328ZM41.061,74.4l1.8-3.368a1.983,1.983,0,0,0-.157-2.1,1.923,1.923,0,0,0-.649-.561,1.99,1.99,0,0,0-2.308.337l-2.374,4.562A1.965,1.965,0,0,0,41.061,74.4Zm5.555-3.109c-.058-.033-1.383-.8-1.383-.8a4.089,4.089,0,0,1-.463,1.564L43.74,73.976l1.087.625a1.779,1.779,0,0,0,1.377.162,1.886,1.886,0,0,0,.411-3.471ZM59.694,58.647a1.941,1.941,0,0,0-.789-.841L48.674,51.975c-1.737-.99-3.908-.112-6.421.906a16.86,16.86,0,0,1-6.13,1.615,7.525,7.525,0,0,1-6.163-3.331,1.435,1.435,0,0,1,.41-2.12,34.961,34.961,0,0,0,7.242-5.463q.721-.731,1.508-1.392c-2.214-.973-4.107-.53-6.091-.066-1.961.459-3.988.934-6.057-.21l-2.387-1.1-5.85,13.235c1.184.528,1.906.842,2.147.936a3.717,3.717,0,0,1,2.084,3.094,4.126,4.126,0,0,1,6.984,2.39,4.122,4.122,0,0,1,4.713,2.912,4.13,4.13,0,0,1,5.217,2.79,4.12,4.12,0,0,1,3.2.295,4.068,4.068,0,0,1,1.242,1.02L49.7,70.534a1.842,1.842,0,0,0,1.414.156,1.869,1.869,0,0,0,1.13-.9,1.9,1.9,0,0,0-.749-2.554,1.078,1.078,0,0,1-.163-.113l-7.4-4.161A1.081,1.081,0,1,1,45,61.078l9.259,5.21a1.877,1.877,0,1,0,1.8-3.294c-2.62-1.468-4.8-2.692-7.049-3.978a1.081,1.081,0,1,1,1.074-1.877c2.238,1.281,4.417,2.5,7.033,3.969a1.826,1.826,0,0,0,1.405.158,1.874,1.874,0,0,0,1.136-.9,1.847,1.847,0,0,0,.035-1.716Zm4.643-3.175L59.085,41.925l-1.92,1.028c-2.132,1.109-4.158.281-6.117-.52-2.652-1.084-5.394-2.2-9.347.507A17.667,17.667,0,0,0,39.149,45.1,36.258,36.258,0,0,1,32.2,50.47c2.8,3.013,5.8,1.8,9.239.406,2.78-1.126,5.655-2.289,8.3-.78l10.231,5.831a4.111,4.111,0,0,1,1.1.907Zm8.478.029L65.069,35.519a.8.8,0,0,0-.425-.442.809.809,0,0,0-.327-.07.789.789,0,0,0-.286.054l-3.847,1.491a.8.8,0,0,0-.458,1.039l7.747,19.983a.808.808,0,0,0,1.039.458l3.847-1.491A.8.8,0,0,0,72.815,55.5ZM63.122,37.145A1.282,1.282,0,1,0,64.4,38.427,1.284,1.284,0,0,0,63.122,37.145ZM27.93,21.378a1.665,1.665,0,0,1,1.514-1.158l7.747-.377,2.753-7.251a1.68,1.68,0,0,1,3.138,0l2.753,7.251,7.747.377a1.678,1.678,0,0,1,.97,2.984l-6.045,4.859,2.035,7.484A1.676,1.676,0,0,1,48,37.393l-6.49-4.248-6.489,4.248a1.678,1.678,0,0,1-2.539-1.844l2.035-7.484-6.045-4.859a1.666,1.666,0,0,1-.545-1.827ZM41.06,13.36v0ZM30.823,22.319l5.3,4.258a1.657,1.657,0,0,1,.568,1.748l-1.783,6.56,5.687-3.723a1.657,1.657,0,0,1,1.838,0l5.687,3.723-1.783-6.559a1.656,1.656,0,0,1,.568-1.748l5.3-4.258-6.79-.331a1.656,1.656,0,0,1-1.487-1.08l-2.413-6.355L39.1,20.907a1.657,1.657,0,0,1-1.488,1.081Z" transform="translate(-7.993 -11.512)" fill="#fbb117"/>
</svg>
