<svg width="65" height="60" viewBox="0 0 65 60" fill="none" xmlns="http://www.w3.org/2000/svg">
<rect width="65" height="60" fill="#E0EEF6"/>
<path d="M46.1274 43.2382V41.4729C46.1274 41.0047 45.9414 40.5557 45.6103 40.2246C45.2793 39.8936 44.8302 39.7076 44.3621 39.7076V29.1158C44.8302 29.1158 45.2793 28.9298 45.6103 28.5988C45.9414 28.2677 46.1274 27.8187 46.1274 27.3505V25.4475C46.1277 25.0751 46.0373 24.7083 45.8642 24.3786C45.691 24.0489 45.4403 23.7663 45.1335 23.5551L33.306 15.3977C32.9207 15.1385 32.4668 15 32.0024 15C31.5379 15 31.084 15.1385 30.6987 15.3977L18.8712 23.5516C18.5656 23.7643 18.316 24.0479 18.1438 24.378C17.9717 24.7082 17.8821 25.0752 17.8826 25.4475V27.3505C17.8826 27.8187 18.0686 28.2677 18.3997 28.5988C18.7307 28.9298 19.1798 29.1158 19.6479 29.1158V39.7076C19.1798 39.7076 18.7307 39.8936 18.3997 40.2246C18.0686 40.5557 17.8826 41.0047 17.8826 41.4729V43.2382C17.6486 43.2382 17.424 43.3312 17.2585 43.4967C17.093 43.6622 17 43.8867 17 44.1208C17 44.3549 17.093 44.5794 17.2585 44.7449C17.424 44.9105 17.6486 45.0035 17.8826 45.0035H46.1274C46.3614 45.0035 46.586 44.9105 46.7515 44.7449C46.917 44.5794 47.01 44.3549 47.01 44.1208C47.01 43.8867 46.917 43.6622 46.7515 43.4967C46.586 43.3312 46.3614 43.2382 46.1274 43.2382ZM19.6479 25.4475C19.6473 25.3607 19.6681 25.2749 19.7084 25.198C19.7488 25.121 19.8074 25.0552 19.8792 25.0062L31.6961 16.8559C31.7862 16.7938 31.893 16.7606 32.0024 16.7606C32.1117 16.7606 32.2185 16.7938 32.3086 16.8559L44.1361 25.0115C44.2076 25.0603 44.2661 25.1259 44.3065 25.2025C44.3468 25.2791 44.3677 25.3645 44.3674 25.4511V27.3505H19.6479V25.4475ZM42.5968 29.1158V39.7076H39.9488V29.1158H42.5968ZM38.1835 29.1158V39.7076H35.0943V29.1158H38.1835ZM33.329 29.1158V39.7076H30.681V29.1158H33.329ZM28.9157 29.1158V39.7076H25.8265V29.1158H28.9157ZM24.0612 29.1158V39.7076H21.4132V29.1158H24.0612ZM44.3621 43.2382H19.6479V41.4729H44.3621V43.2382ZM32.005 20.2893C31.4813 20.2893 30.9693 20.4446 30.5339 20.7356C30.0984 21.0266 29.759 21.4401 29.5586 21.924C29.3582 22.4078 29.3058 22.9402 29.4079 23.4539C29.5101 23.9675 29.7623 24.4393 30.1326 24.8097C30.5029 25.18 30.9748 25.4322 31.4884 25.5344C32.0021 25.6365 32.5345 25.5841 33.0183 25.3837C33.5022 25.1833 33.9157 24.8439 34.2067 24.4084C34.4976 23.973 34.6529 23.461 34.6529 22.9373C34.6529 22.235 34.374 21.5615 33.8774 21.0649C33.3808 20.5683 32.7073 20.2893 32.005 20.2893ZM32.005 23.8199C31.8304 23.8199 31.6598 23.7682 31.5146 23.6712C31.3695 23.5742 31.2563 23.4363 31.1895 23.2751C31.1227 23.1138 31.1053 22.9363 31.1393 22.7651C31.1734 22.5939 31.2574 22.4366 31.3809 22.3132C31.5043 22.1897 31.6616 22.1057 31.8328 22.0716C32.004 22.0375 32.1815 22.055 32.3428 22.1218C32.5041 22.1886 32.6419 22.3018 32.7389 22.4469C32.8359 22.5921 32.8876 22.7627 32.8876 22.9373C32.8876 23.1714 32.7947 23.3959 32.6291 23.5614C32.4636 23.7269 32.2391 23.8199 32.005 23.8199Z" fill="#5088AE"/>
</svg>
