<svg xmlns="http://www.w3.org/2000/svg" xmlns:xlink="http://www.w3.org/1999/xlink" width="60" height="60" viewBox="0 0 60 60">
  <defs>
    <clipPath id="clip-path">
      <path id="Path_119" data-name="Path 119" d="M0-682.665H60v60H0Z" transform="translate(0 682.665)"/>
    </clipPath>
  </defs>
  <g id="Group_69" data-name="Group 69" clip-path="url(#clip-path)">
    <path id="Path_104" data-name="Path 104" d="M-349.151-323.74h20.79a3.222,3.222,0,0,0,3.222-3.222v-27.973H-382.8v27.973a3.222,3.222,0,0,0,3.222,3.222h20.113" transform="translate(383.967 377.306)" fill="none" stroke="#fbb117" stroke-linecap="round" stroke-linejoin="round" stroke-miterlimit="10" stroke-width="3"/>
    <path id="Path_105" data-name="Path 105" d="M-564.9,0h-51.211a3.222,3.222,0,0,0-3.222,3.222V15.938h57.656V3.222A3.222,3.222,0,0,0-564.9,0Z" transform="translate(620.506 6.433)" fill="none" stroke="#fbb117" stroke-linecap="round" stroke-linejoin="round" stroke-miterlimit="10" stroke-width="3"/>
    <path id="Path_106" data-name="Path 106" d="M-179.54-188.775h-15.576a1.725,1.725,0,0,1-1.725-1.725v-14.74a1.725,1.725,0,0,1,1.725-1.725h15.576a1.725,1.725,0,0,1,1.725,1.725v14.74A1.725,1.725,0,0,1-179.54-188.775Z" transform="translate(204.378 235.766)" fill="none" stroke="#fbb117" stroke-linecap="round" stroke-linejoin="round" stroke-miterlimit="10" stroke-width="3"/>
    <path id="Path_107" data-name="Path 107" d="M-43.967-106.291h0a4.237,4.237,0,0,1-4.237-4.237V-112.3a4.237,4.237,0,0,1,4.237-4.237,4.237,4.237,0,0,1,4.237,4.237v1.769A4.237,4.237,0,0,1-43.967-106.291Z" transform="translate(61.017 145.334)" fill="none" stroke="#fbb117" stroke-linecap="round" stroke-linejoin="round" stroke-miterlimit="10" stroke-width="3"/>
    <path id="Path_108" data-name="Path 108" d="M-189.623-82.889a1.72,1.72,0,0,1-1.349.651h-15.576a1.718,1.718,0,0,1-1.348-.649l.139-.84a4.607,4.607,0,0,1,2.968-3.578l2.616-.953a1.377,1.377,0,0,0,.9-1.115l.2-1.5a4.215,4.215,0,0,0,2.317.689,4.213,4.213,0,0,0,2.318-.69l.2,1.5a1.377,1.377,0,0,0,.894,1.115l2.618.953a4.607,4.607,0,0,1,2.968,3.578Z" transform="translate(215.81 129.229)" fill="none" stroke="#fbb117" stroke-linecap="round" stroke-linejoin="round" stroke-miterlimit="10" stroke-width="3"/>
    <path id="Path_109" data-name="Path 109" d="M-200.654,0h-19.335" transform="translate(252.786 28.801)" fill="none" stroke="#fbb117" stroke-linecap="round" stroke-linejoin="round" stroke-miterlimit="10" stroke-width="3"/>
    <path id="Path_110" data-name="Path 110" d="M0,0H10.765" transform="translate(41.367 35.078)" fill="none" stroke="#fbb117" stroke-linecap="round" stroke-linejoin="round" stroke-miterlimit="10" stroke-width="3"/>
    <path id="Path_111" data-name="Path 111" d="M0,0H3.452" transform="translate(32.797 35.078)" fill="none" stroke="#fbb117" stroke-linecap="round" stroke-linejoin="round" stroke-miterlimit="10" stroke-width="3"/>
    <path id="Path_112" data-name="Path 112" d="M0,0H9.462" transform="translate(42.67 46.991)" fill="none" stroke="#fbb117" stroke-linecap="round" stroke-linejoin="round" stroke-miterlimit="10" stroke-width="3"/>
    <path id="Path_113" data-name="Path 113" d="M0,0H0" transform="translate(29.648 53.567)" fill="none" stroke="#fbb117" stroke-linecap="round" stroke-linejoin="round" stroke-miterlimit="10" stroke-width="3"/>
    <path id="Path_114" data-name="Path 114" d="M0-74.211l2.685-7.05a.162.162,0,0,1,.3,0l2.661,7.051" transform="translate(38.684 92.283)" fill="none" stroke="#fbb117" stroke-linecap="round" stroke-linejoin="round" stroke-miterlimit="10" stroke-width="3"/>
    <path id="Path_115" data-name="Path 115" d="M0,0H3.984" transform="translate(39.521 16.316)" fill="none" stroke="#fbb117" stroke-linecap="round" stroke-linejoin="round" stroke-miterlimit="10" stroke-width="3"/>
    <path id="Path_116" data-name="Path 116" d="M0,0V7.151" transform="translate(25.377 10.921)" fill="none" stroke="#fbb117" stroke-linecap="round" stroke-linejoin="round" stroke-miterlimit="10" stroke-width="3"/>
    <path id="Path_117" data-name="Path 117" d="M-45.739-7.629a3.261,3.261,0,0,0-2.8-.623,1.491,1.491,0,0,0-.579,2.676s.986.44,2.08.844c2.634.971,1.5,3.519-.621,3.519a3.377,3.377,0,0,1-2.492-1.06" transform="translate(80.366 19.284)" fill="none" stroke="#fbb117" stroke-linecap="round" stroke-linejoin="round" stroke-miterlimit="10" stroke-width="3"/>
    <path id="Path_118" data-name="Path 118" d="M0,0,2.445,7.044a.161.161,0,0,0,.3,0L5.085.013" transform="translate(15.67 10.921)" fill="none" stroke="#fbb117" stroke-linecap="round" stroke-linejoin="round" stroke-miterlimit="10" stroke-width="3"/>
  </g>
</svg>
